PathFileType	4	(X/Y/Z)	C:\Users\°ÂÌØÂü\Desktop\20210112\bx_n_0_501-Unnamed.trc
DataRate	CameraRate	NumFrames	NumMarkers	Units	OrigDataRate	OrigDataStartFrame	OrigNumFrames
50.00	50.00	       8	0	mm	50.00	297	       339
Frame#	Time	
		

297	5.920	-747.88983	103.99966	1853.90747	-693.65161	264.22388	745.31543	-757.21289	275.67899	1530.60327	-614.54547	96.49418	1363.99231	-689.88690	277.63062	875.50476	-753.61078	-25.14021	206.27716	-659.12109	15.83660	518.87646	-726.27637	248.11426	643.00177	-876.20959	-78.91647	141.41353	-585.26849	0.72877	807.74487	-760.56079	256.95630	501.31879	-546.82269	213.45438	165.08476	-547.66461	-12.42518	165.16431	-678.47003	154.98219	158.18660	-600.97455	37.16121	168.30348	-678.28717	57.17603	159.22278	-795.59125	180.94623	184.58957	-761.08618	224.23961	205.23518	-588.84711	184.03009	174.24913	-882.72278	296.08923	144.48718	-724.63147	242.62563	576.39050	-640.37683	274.00241	159.93007	-601.71765	274.32095	159.81682	-527.98840	303.97232	146.18501	-727.57751	-84.13134	1546.29138	-807.59692	80.69878	1058.94019	-594.61578	208.77119	795.64905	-692.82544	69.63102	576.83618	-795.25128	31.03659	174.49747	-742.61591	-56.01728	486.86386							-722.67651	68.66602	216.84839	-692.75458	-41.65292	614.54083	-698.99847	-39.63394	567.33191	-719.86176	143.38724	217.00575				-599.94946	-62.17896	159.40666	-641.75739	-60.10219	162.88641	-670.50818	-66.20778	757.59912	-517.81085	-72.96118	143.22667							-599.82269	-13.77804	1057.02100	-613.14258	231.42319	1068.43542				-676.72369	194.25578	535.05231	-655.16846	-80.42180	873.68011	
298	5.940	-747.01892	104.15340	1854.12439	-693.57837	264.53275	745.27954	-756.65906	275.77548	1530.83630	-614.21521	96.44118	1363.93298	-690.12067	277.99582	875.49103	-753.76727	-25.00525	206.24562	-659.13928	16.02930	519.00122	-726.28174	248.58868	643.24585	-876.12219	-78.89765	141.41621	-585.13690	0.82894	807.84399	-760.38593	257.27206	501.39005	-546.84570	213.20590	165.06377	-547.67114	-12.38147	165.34344	-678.47003	154.98219	158.18660	-601.10840	37.04118	168.16447	-678.18646	56.98772	159.63734	-795.67944	180.76407	184.61490	-761.15509	224.19719	205.35661	-588.86469	183.95627	174.30310	-882.68158	296.13046	144.56700	-724.71185	242.61018	576.21033	-640.37683	274.00241	159.93007	-601.73535	274.44305	159.95793	-528.03784	304.00616	146.17915	-727.03394	-83.91910	1546.09656	-807.67926	81.19360	1058.88391	-594.77893	209.02196	795.61725	-692.91418	70.17919	576.69666	-795.25128	31.03659	174.49747	-742.62811	-55.76352	486.75870							-722.37732	68.68317	216.72624	-692.92523	-41.28201	614.36670	-698.94672	-39.25397	567.32654	-719.82257	143.16896	217.25545				-599.71600	-61.62511	159.74834	-641.78491	-59.97528	162.77107	-670.83447	-65.95887	757.79950	-517.81085	-72.96118	143.22667							-599.67743	-13.52664	1057.08337	-613.13574	231.76501	1068.45752				-676.65692	194.19684	534.98706	-655.13367	-80.00613	873.46851	
299	5.960	-746.17554	104.05531	1854.07385	-693.58997	265.25229	745.32019	-756.29199	275.92407	1530.82471	-613.86420	96.45142	1363.93127	-689.96088	277.99719	875.17554	-753.76727	-25.00525	206.24562	-659.11871	16.25206	518.87982	-726.19708	248.91324	643.22754	-876.12219	-78.89765	141.41621	-585.18207	0.97990	807.60052	-760.33118	257.31689	501.29803	-546.68695	213.40092	165.38171	-547.62689	-12.33426	165.26015	-678.56714	154.92393	158.45467	-600.95764	37.00606	168.20082	-678.05292	57.10081	159.16655	-795.58069	180.97525	184.55772	-760.96490	224.10364	205.09094	-588.86938	184.10222	174.16844	-882.57031	296.19208	144.73668	-724.74878	242.71066	576.26556	-640.33264	273.89243	160.01131	-601.87549	274.34918	159.72960	-528.33368	304.14871	146.40765	-726.62732	-83.71437	1546.21521	-807.75586	81.62605	1058.74182	-594.89441	209.27985	795.17438	-692.82953	70.49810	576.58838	-794.37964	30.99647	173.88391	-742.71912	-55.51212	486.96088							-722.39539	68.72213	216.47688	-692.92523	-41.28201	614.36670	-698.63104	-39.03762	567.35211	-720.04999	143.29260	217.25534				-599.46698	-61.78618	159.81593	-641.78491	-59.97528	162.77107	-670.74408	-65.69444	757.88251	-517.81085	-72.96118	143.22667							-599.93738	-12.98144	1056.99219	-613.10223	232.20448	1068.54456				-676.72369	194.25578	535.05231	-655.08563	-79.79410	873.33179	
300	5.980	-745.25323	104.38438	1854.21655	-693.64044	265.24219	745.09326	-755.64166	276.27792	1531.11035	-613.44086	96.92207	1363.83240	-690.04297	278.29431	875.33612	-753.76727	-25.00525	206.24562	-658.78857	16.62695	519.08276	-726.18268	249.16908	643.23993	-876.12219	-78.89765	141.41621	-585.36798	0.98566	807.69702	-760.25781	257.58127	501.34451	-546.80951	213.45424	164.93362	-547.67743	-12.31724	165.34024	-678.56714	154.92393	158.45467	-601.03693	37.07267	168.23177	-678.05292	57.10081	159.16655	-795.81549	181.03134	184.54535	-760.99371	224.30089	205.10985	-588.91351	184.21153	174.10806	-882.71674	296.13635	144.58629	-724.53632	243.13220	575.83606	-640.37286	274.06317	159.81787	-601.87726	274.33960	159.71643	-528.20984	304.20206	146.31906	-726.25153	-83.34299	1546.02686	-807.61523	81.61335	1058.88513	-595.39825	209.86568	795.13312	-693.16278	70.65073	576.73590	-795.30945	31.09633	174.44389	-742.46454	-55.06293	486.96927							-722.51868	69.06345	216.40796	-692.79663	-40.99311	614.41632	-698.77539	-38.75859	567.24603	-719.99567	143.54042	217.16075				-599.68951	-61.86135	159.92447	-641.68359	-59.98838	163.01317	-670.78180	-65.39143	757.59808	-517.81696	-72.82327	143.04913							-600.03009	-12.54285	1057.00525	-612.86621	232.59689	1068.62476				-676.82184	194.30609	535.04163	-655.44421	-79.35922	873.20557	
301	6.000	-744.47021	104.20403	1854.30286	-693.75122	265.61014	745.12427	-755.29132	276.49124	1531.26941	-613.01410	97.37184	1363.95142	-690.03088	278.56091	875.39581	-753.76727	-25.00525	206.24562	-658.96667	16.93744	518.96655	-726.44604	249.31215	643.02136	-876.14905	-78.79788	141.54057	-585.14124	1.24742	807.71234	-760.52051	257.85904	501.35858	-546.98108	213.50954	165.04482	-547.59662	-12.41605	165.14125	-678.56714	154.92393	158.45467	-600.89154	37.12165	168.23804	-678.44293	57.23116	159.47366	-795.57239	180.92288	184.59827	-760.94202	224.40054	205.13591	-588.80603	184.06871	174.22549	-882.56329	296.20087	144.64758	-724.49127	243.17342	575.72290	-640.37683	274.00241	159.93007	-601.78693	274.39587	159.76421	-528.24188	304.07635	146.21542	-725.75946	-83.27429	1546.02625	-807.95764	82.50134	1059.08484	-595.48114	209.95738	795.13654	-693.11023	70.92323	577.00250	-794.37964	30.99647	173.88391	-742.80939	-54.49051	486.37570							-722.61322	69.39556	216.19664	-692.80426	-40.92221	614.50592	-698.92651	-38.11771	567.34357	-720.01764	143.36923	217.24629				-599.73688	-61.94141	159.70923	-641.71118	-59.86148	162.89783	-670.94867	-65.13158	757.53137	-517.81085	-72.96118	143.22667							-600.02319	-12.24658	1057.05444	-612.97693	233.12605	1068.63013				-676.82184	194.30609	535.04163	-655.43890	-79.08728	873.28473	
302	6.020	-743.51971	104.67004	1854.53369	-693.80554	265.62466	744.79645	-754.95410	276.62729	1531.46387	-612.83228	97.77691	1363.84302	-690.33356	278.98709	875.40759	-754.11041	-24.65112	206.60382	-658.83600	17.05833	518.84216	-726.36432	249.40643	642.94745	-876.14905	-78.79788	141.54057	-585.07379	1.45651	807.55969	-760.48401	257.86078	501.32449	-546.74347	213.37981	165.17401	-547.59662	-12.41605	165.14125	-678.64056	154.79422	158.33397	-600.95764	37.00606	168.20082	-678.28302	57.31851	159.32034	-795.70233	181.00545	184.59659	-761.06812	224.54094	205.07445	-588.86938	184.10222	174.16844	-882.56976	296.10037	144.61523	-724.49127	243.17342	575.72290	-640.37286	274.06317	159.81787	-601.70551	274.27869	159.76160	-528.17377	303.96555	146.50659	-725.17712	-82.94852	1546.07666	-807.88135	83.02400	1059.01233	-595.15051	210.39754	795.35577	-692.64471	71.28278	576.55701	-794.37860	31.13266	173.89977	-742.65448	-54.62642	486.84177							-722.58099	69.60842	216.32869	-692.97705	-40.52382	614.48260	-699.00385	-37.77038	567.48199	-720.02747	143.57686	217.16696				-599.80597	-61.59588	159.53235	-641.78491	-59.97528	162.77107	-671.24213	-64.61423	757.51306	-517.79498	-72.90541	143.13284							-600.29974	-11.77497	1056.89380	-612.92584	233.39214	1068.60706				-676.89050	194.73175	535.02716	-655.55243	-78.77230	873.21838	
303	6.040	-742.56476	104.65006	1854.55017	-693.76715	265.64575	744.67224	-754.31207	276.80655	1531.55579	-612.36218	97.78029	1363.62988	-690.31042	279.21252	875.24426	-753.97650	-24.41807	206.47795	-658.62506	17.27531	518.73212	-726.44659	249.74219	642.82971	-876.14905	-78.79788	141.54057	-585.17029	1.87658	807.81317	-760.51740	258.07773	501.34152	-546.82697	213.60309	165.22218	-547.59662	-12.41605	165.14125	-678.56714	154.92393	158.45467	-601.04810	37.21577	168.02362	-678.15833	57.15356	159.31169	-795.75128	181.09520	184.50540	-761.21082	224.48048	205.10382	-588.89124	184.13940	174.18875	-882.57111	296.04724	144.60146	-724.49127	243.17342	575.72290	-640.37286	274.06317	159.81787	-601.81818	274.40643	159.71895	-528.24188	304.07635	146.21542	-724.84399	-82.90087	1545.91479	-807.62207	83.29828	1058.99878	-595.06165	210.96877	795.45782	-692.63000	71.36455	576.52820	-794.37860	31.13266	173.89977	-742.52008	-54.39967	486.96259							-722.71484	69.77913	216.34985	-692.89038	-39.95344	614.38116	-698.91937	-37.81068	567.56879	-720.01764	143.36923	217.24629				-599.71600	-61.62511	159.74834	-641.74408	-59.77082	163.08424	-671.22394	-64.58362	757.53448	-517.81085	-72.96118	143.22667							-600.39380	-11.26570	1056.66382	-612.95074	233.64635	1068.66736				-676.89410	195.16208	534.95795	-655.68286	-78.42175	873.26367	
304	6.060	-741.70032	104.54185	1854.51990	-693.64777	265.93420	744.71863	-753.78314	277.03568	1531.72510	-612.00195	98.19317	1363.64026	-690.39899	279.57043	875.37537	-753.97650	-24.41807	206.47795	-658.65039	17.27937	518.99030	-726.45837	250.01518	643.09180	-876.10693	-78.99421	141.26549	-585.46204	2.26899	807.49713	-760.65057	258.50656	501.38260	-546.81885	213.48016	165.15094	-547.51788	-12.42070	165.28806	-678.56714	154.92393	158.45467	-601.00757	37.22331	167.87633	-678.56372	57.17940	159.27040	-795.65552	180.95920	184.51790	-761.03357	224.36554	205.06847	-588.89124	184.13940	174.18875	-882.56689	296.15085	144.56075	-724.46954	243.26735	575.72083	-640.43927	273.97528	160.00137	-601.87549	274.34918	159.72960	-528.34180	304.17368	146.40434	-724.41919	-82.86330	1546.13391	-807.71362	83.39121	1058.93799	-595.14764	211.28436	795.45001	-692.77167	71.93568	576.51764	-794.37860	31.13266	173.89977	-742.51788	-54.34522	487.02832							-722.95770	69.88173	216.01944	-692.60553	-39.60108	614.33679	-699.02148	-37.39831	567.25348	-720.16595	143.36935	217.18288				-599.67169	-61.77055	159.96846	-641.74408	-59.77082	163.08424	-671.10974	-64.39951	757.66968	-517.81085	-72.96118	143.22667							-600.34351	-10.99996	1056.67871	-612.85583	233.89783	1068.73047				-677.06775	195.39481	534.91791	-655.77472	-77.70340	872.96198	
